<?xml version="1.0" encoding="UTF-8" standalone="no"?>
<!-- Created with Inkscape (http://www.inkscape.org/) -->

<svg
   width="300mm"
   height="300mm"
   viewBox="0 0 300 300"
   version="1.1"
   id="svg1"
   xml:space="preserve"
   sodipodi:docname="logo.svg"
   inkscape:version="1.3.2 (091e20e, 2023-11-25)"
   xmlns:inkscape="http://www.inkscape.org/namespaces/inkscape"
   xmlns:sodipodi="http://sodipodi.sourceforge.net/DTD/sodipodi-0.dtd"
   xmlns="http://www.w3.org/2000/svg"
   xmlns:svg="http://www.w3.org/2000/svg"><sodipodi:namedview
     id="namedview1"
     pagecolor="#505050"
     bordercolor="#ffffff"
     borderopacity="1"
     inkscape:showpageshadow="0"
     inkscape:pageopacity="0"
     inkscape:pagecheckerboard="1"
     inkscape:deskcolor="#505050"
     inkscape:document-units="mm"
     inkscape:zoom="0.57486759"
     inkscape:cx="151.3392"
     inkscape:cy="615.79398"
     inkscape:window-width="2560"
     inkscape:window-height="1027"
     inkscape:window-x="1512"
     inkscape:window-y="25"
     inkscape:window-maximized="1"
     inkscape:current-layer="svg1"
     showguides="false"><sodipodi:guide
       position="150,150"
       orientation="-1,0"
       id="guide75"
       inkscape:locked="false"
       inkscape:label=""
       inkscape:color="rgb(0,134,229)" /><sodipodi:guide
       position="100.02123,186.19291"
       orientation="1,0"
       id="guide78"
       inkscape:locked="false" /><sodipodi:guide
       position="200,179.38127"
       orientation="1,0"
       id="guide79"
       inkscape:locked="false" /><sodipodi:guide
       position="100.02123,212.5"
       orientation="0,1"
       id="guide81"
       inkscape:locked="false"
       inkscape:label=""
       inkscape:color="rgb(0,134,229)" /><sodipodi:guide
       position="100.02128,86.540538"
       orientation="0,-1"
       id="guide82"
       inkscape:locked="false" /><sodipodi:guide
       position="120.59926,144"
       orientation="0,1"
       id="guide83"
       inkscape:locked="false"
       inkscape:label=""
       inkscape:color="rgb(0,134,229)" /><sodipodi:guide
       position="100.02128,128.08542"
       orientation="0,1"
       id="guide84"
       inkscape:locked="false"
       inkscape:label=""
       inkscape:color="rgb(0,134,229)" /><sodipodi:guide
       position="127.65681,106.48985"
       orientation="0,-1"
       id="guide86"
       inkscape:locked="false" /><sodipodi:guide
       position="150,150"
       orientation="0,1"
       id="guide88"
       inkscape:locked="false"
       inkscape:label=""
       inkscape:color="rgb(0,134,229)" /><sodipodi:guide
       position="113.54056,95.794917"
       orientation="0.60380932,-0.79712879"
       id="guide89"
       inkscape:label=""
       inkscape:locked="false"
       inkscape:color="rgb(0,134,229)" /><sodipodi:guide
       position="109.26672,150.99643"
       orientation="0.60380932,0.79712879"
       id="guide90"
       inkscape:label=""
       inkscape:locked="false"
       inkscape:color="rgb(0,134,229)" /><sodipodi:guide
       position="158.67566,122.27774"
       orientation="0.66426987,0.74749284"
       id="guide91"
       inkscape:label=""
       inkscape:locked="false"
       inkscape:color="rgb(0,134,229)" /><sodipodi:guide
       position="100.0218,159.91449"
       orientation="0,1"
       id="guide92"
       inkscape:locked="false"
       inkscape:label=""
       inkscape:color="rgb(0,134,229)" /><sodipodi:guide
       position="101.44259,212.12803"
       orientation="0.66426992,0.74749279"
       id="guide93"
       inkscape:label=""
       inkscape:locked="false"
       inkscape:color="rgb(0,134,229)" /><sodipodi:guide
       position="170.81851,186.50699"
       orientation="1,0"
       id="guide94"
       inkscape:locked="false" /><sodipodi:guide
       position="129.16732,121.85615"
       orientation="1,0"
       id="guide103"
       inkscape:locked="false" /><sodipodi:guide
       position="181.61916,154.98044"
       orientation="0,-1"
       id="guide104"
       inkscape:locked="false" /><sodipodi:guide
       position="198.45455,167.83236"
       orientation="0,-1"
       id="guide105"
       inkscape:locked="false" /><sodipodi:guide
       position="190.71936,161.97845"
       orientation="0.60380932,-0.79712879"
       id="guide106"
       inkscape:label=""
       inkscape:locked="false"
       inkscape:color="rgb(0,134,229)" /><sodipodi:guide
       position="182.32081,200.04156"
       orientation="0.60380932,-0.79712879"
       id="guide107"
       inkscape:label=""
       inkscape:locked="false"
       inkscape:color="rgb(0,134,229)" /><sodipodi:guide
       position="109.26646,136.99651"
       orientation="0.60380932,-0.79712879"
       id="guide108"
       inkscape:label=""
       inkscape:locked="false"
       inkscape:color="rgb(0,134,229)" /><sodipodi:guide
       position="190.71911,147.97853"
       orientation="0.60380932,0.79712879"
       id="guide109"
       inkscape:label=""
       inkscape:locked="false"
       inkscape:color="rgb(0,134,229)" /><sodipodi:guide
       position="43.74058,132.70522"
       orientation="1,0"
       id="guide110"
       inkscape:locked="false" /><sodipodi:guide
       position="256.28065,166.27522"
       orientation="1,0"
       id="guide111"
       inkscape:locked="false" /><sodipodi:guide
       position="132.63014,261.17811"
       orientation="0,-1"
       id="guide112"
       inkscape:locked="false" /><sodipodi:guide
       position="126.26468,36.876187"
       orientation="0,-1"
       id="guide113"
       inkscape:locked="false" /><sodipodi:guide
       position="222.94752,161.92915"
       orientation="1,0"
       id="guide114"
       inkscape:locked="false" /><sodipodi:guide
       position="164.68939,227.0185"
       orientation="0,-1"
       id="guide115"
       inkscape:locked="false" /><sodipodi:guide
       position="200,261.17811"
       orientation="0.66426992,0.74749279"
       id="guide119"
       inkscape:label=""
       inkscape:locked="false"
       inkscape:color="rgb(0,134,229)" /><sodipodi:guide
       position="185,251.77668"
       orientation="-1,0"
       id="guide120"
       inkscape:locked="false"
       inkscape:label=""
       inkscape:color="rgb(0,134,229)" /><sodipodi:guide
       position="218.12638,194.52297"
       orientation="0,-1"
       id="guide123"
       inkscape:locked="false" /><sodipodi:guide
       position="224.95204,200.52384"
       orientation="0.71760016,-0.69645532"
       id="guide124"
       inkscape:locked="false" /><sodipodi:guide
       position="211.69447,215.34173"
       orientation="1,0"
       id="guide125"
       inkscape:locked="false" /><sodipodi:guide
       position="185.17104,238.13255"
       orientation="0,1"
       id="guide126"
       inkscape:locked="false"
       inkscape:label=""
       inkscape:color="rgb(0,134,229)" /><sodipodi:guide
       position="135.31061,72.022034"
       orientation="0,-1"
       id="guide127"
       inkscape:locked="false" /><sodipodi:guide
       position="126.26468,300"
       orientation="0,1"
       id="guide131"
       inkscape:locked="false"
       inkscape:label=""
       inkscape:color="rgb(0,134,229)" /><sodipodi:guide
       position="112.87941,61.86745"
       orientation="0,1"
       id="guide132"
       inkscape:locked="false"
       inkscape:label=""
       inkscape:color="rgb(0,134,229)" /></sodipodi:namedview><defs
     id="defs1"><inkscape:path-effect
       effect="fillet_chamfer"
       id="path-effect67"
       is_visible="true"
       lpeversion="1"
       nodesatellites_param="F,0,0,1,0,0,0,1 @ F,0,0,1,0,0.37553673,0,1 @ F,0,1,1,0,1.9245457,0,1 @ F,0,0,1,0,1.9245457,0,1 @ F,0,0,1,0,0.37553673,0,1 @ F,0,0,1,0,0,0,1"
       radius="0"
       unit="px"
       method="auto"
       mode="F"
       chamfer_steps="1"
       flexible="false"
       use_knot_distance="true"
       apply_no_radius="true"
       apply_with_radius="true"
       only_selected="false"
       hide_knots="false" /><inkscape:path-effect
       effect="fillet_chamfer"
       id="path-effect66"
       is_visible="true"
       lpeversion="1"
       nodesatellites_param="F,0,0,1,0,0,0,1 @ F,0,0,1,0,0.55718511,0,1 @ F,0,0,1,0,1.9416709,0,1 @ F,0,1,1,0,1.9416709,0,1 @ F,0,0,1,0,0.55718511,0,1 @ F,0,0,1,0,0,0,1"
       radius="0"
       unit="px"
       method="auto"
       mode="F"
       chamfer_steps="1"
       flexible="false"
       use_knot_distance="true"
       apply_no_radius="true"
       apply_with_radius="true"
       only_selected="false"
       hide_knots="false" /><inkscape:path-effect
       effect="fillet_chamfer"
       id="path-effect65"
       is_visible="true"
       lpeversion="1"
       nodesatellites_param="F,0,1,1,0,1.940239,0,1 @ F,0,1,1,0,1.940239,0,1 @ F,0,0,1,0,1.940239,0,1 @ F,0,1,1,0,1.940239,0,1"
       radius="0"
       unit="px"
       method="auto"
       mode="F"
       chamfer_steps="1"
       flexible="false"
       use_knot_distance="true"
       apply_no_radius="true"
       apply_with_radius="true"
       only_selected="false"
       hide_knots="false" /><inkscape:path-effect
       effect="fillet_chamfer"
       id="path-effect64"
       is_visible="true"
       lpeversion="1"
       nodesatellites_param="F,0,0,1,0,2.0001195,0,1 @ F,0,1,1,0,2.0001195,0,1 @ F,0,0,1,0,0,0,1 @ F,0,0,1,0,0,0,1"
       radius="0"
       unit="px"
       method="auto"
       mode="F"
       chamfer_steps="1"
       flexible="false"
       use_knot_distance="true"
       apply_no_radius="true"
       apply_with_radius="true"
       only_selected="false"
       hide_knots="false" /><inkscape:path-effect
       effect="fillet_chamfer"
       id="path-effect63"
       is_visible="true"
       lpeversion="1"
       nodesatellites_param="F,0,0,1,0,0,0,1 @ F,0,0,1,0,0.56893836,0,1 @ F,0,1,1,0,1.9414405,0,1 @ F,0,0,1,0,1.9414405,0,1 @ F,0,0,1,0,0.56893836,0,1 @ F,0,0,1,0,0,0,1"
       radius="0"
       unit="px"
       method="auto"
       mode="F"
       chamfer_steps="1"
       flexible="false"
       use_knot_distance="true"
       apply_no_radius="true"
       apply_with_radius="true"
       only_selected="false"
       hide_knots="false" /><inkscape:path-effect
       effect="fillet_chamfer"
       id="path-effect53"
       is_visible="true"
       lpeversion="1"
       nodesatellites_param="F,0,0,1,0,0,0,1 @ F,0,0,1,0,0,0,1 @ F,0,0,1,0,0,0,1 @ F,0,0,1,0,0,0,1"
       radius="0"
       unit="px"
       method="auto"
       mode="F"
       chamfer_steps="1"
       flexible="false"
       use_knot_distance="true"
       apply_no_radius="true"
       apply_with_radius="true"
       only_selected="false"
       hide_knots="false" /><inkscape:path-effect
       effect="fillet_chamfer"
       id="path-effect20"
       is_visible="true"
       lpeversion="1"
       nodesatellites_param="F,0,0,1,0,1.5078019,0,1 @ F,0,0,1,0,8.4971392,0,1 @ F,0,0,1,0,0.65659122,0,1 @ F,0,0,1,0,1.6306484,0,1 @ F,0,0,1,0,6.6426657,0,1 @ F,0,0,1,0,2.3801216,0,1"
       radius="0"
       unit="px"
       method="auto"
       mode="F"
       chamfer_steps="1"
       flexible="false"
       use_knot_distance="true"
       apply_no_radius="true"
       apply_with_radius="true"
       only_selected="false"
       hide_knots="false" /><inkscape:path-effect
       effect="fillet_chamfer"
       id="path-effect18"
       is_visible="true"
       lpeversion="1"
       nodesatellites_param="F,0,0,1,0,1.5078019,0,1 @ F,0,0,1,0,8.4971392,0,1 @ F,0,0,1,0,0.65659122,0,1 @ F,0,0,1,0,1.6306484,0,1 @ F,0,0,1,0,6.6426657,0,1 @ F,0,0,1,0,2.3801216,0,1"
       radius="0"
       unit="px"
       method="auto"
       mode="F"
       chamfer_steps="1"
       flexible="false"
       use_knot_distance="true"
       apply_no_radius="true"
       apply_with_radius="true"
       only_selected="false"
       hide_knots="false" /><inkscape:path-effect
       effect="fillet_chamfer"
       id="path-effect17"
       is_visible="true"
       lpeversion="1"
       nodesatellites_param="F,0,0,1,0,2.2550481,0,1 @ F,0,0,1,0,2.9426879,0,1 @ F,0,0,1,0,7.0071536,0,1 @ F,0,0,1,0,2.2550481,0,1 @ F,0,0,1,0,2.9426879,0,1 @ F,0,1,1,0,7.0071536,0,1"
       radius="0"
       unit="px"
       method="auto"
       mode="F"
       chamfer_steps="1"
       flexible="false"
       use_knot_distance="true"
       apply_no_radius="true"
       apply_with_radius="true"
       only_selected="false"
       hide_knots="false" /><inkscape:path-effect
       effect="fillet_chamfer"
       id="path-effect14"
       is_visible="true"
       lpeversion="1"
       nodesatellites_param="F,0,0,1,0,2.2550481,0,1 @ F,0,0,1,0,2.9426879,0,1 @ F,0,0,1,0,7.0071536,0,1 @ F,0,0,1,0,2.2550481,0,1 @ F,0,0,1,0,2.9426879,0,1 @ F,0,1,1,0,7.0071536,0,1"
       radius="0"
       unit="px"
       method="auto"
       mode="F"
       chamfer_steps="1"
       flexible="false"
       use_knot_distance="true"
       apply_no_radius="true"
       apply_with_radius="true"
       only_selected="false"
       hide_knots="false" /><inkscape:path-effect
       effect="fillet_chamfer"
       id="path-effect6"
       is_visible="true"
       lpeversion="1"
       nodesatellites_param="F,0,1,1,0,1.8295539,0,1 @ F,0,1,1,0,1.8295539,0,1 @ F,0,1,1,0,1.8295539,0,1 @ F,0,1,1,0,1.8295539,0,1 @ F,0,1,1,0,1.8295539,0,1 @ F,0,1,1,0,1.8295539,0,1 @ F,0,1,1,0,1.8295539,0,1 @ F,0,1,1,0,1.8295539,0,1 @ F,0,1,1,0,1.8295539,0,1 @ F,0,1,1,0,1.8295539,0,1 @ F,0,1,1,0,1.8295539,0,1 @ F,0,1,1,0,1.8295539,0,1 @ F,0,1,1,0,1.8295539,0,1 @ F,0,1,1,0,1.8295539,0,1"
       radius="0"
       unit="px"
       method="auto"
       mode="F"
       chamfer_steps="1"
       flexible="false"
       use_knot_distance="true"
       apply_no_radius="true"
       apply_with_radius="true"
       only_selected="false"
       hide_knots="false" /><inkscape:path-effect
       effect="fillet_chamfer"
       id="path-effect65-7"
       is_visible="true"
       lpeversion="1"
       nodesatellites_param="F,0,1,1,0,1.940239,0,1 @ F,0,0,1,0,0,0,1 @ F,0,1,1,0,1.940239,0,1 @ F,0,0,1,0,1.940239,0,1 @ F,0,0,1,0,0,0,1 @ F,0,1,1,0,1.940239,0,1"
       radius="0"
       unit="px"
       method="auto"
       mode="F"
       chamfer_steps="1"
       flexible="false"
       use_knot_distance="true"
       apply_no_radius="true"
       apply_with_radius="true"
       only_selected="false"
       hide_knots="false" /><inkscape:path-effect
       effect="fillet_chamfer"
       id="path-effect63-8"
       is_visible="true"
       lpeversion="1"
       nodesatellites_param="F,0,0,1,0,0,0,1 @ F,0,0,1,0,0.56893836,0,1 @ F,0,1,1,0,1.9414405,0,1 @ F,0,0,1,0,1.9414405,0,1 @ F,0,0,1,0,0.56893836,0,1 @ F,0,0,1,0,0,0,1"
       radius="0"
       unit="px"
       method="auto"
       mode="F"
       chamfer_steps="1"
       flexible="false"
       use_knot_distance="true"
       apply_no_radius="true"
       apply_with_radius="true"
       only_selected="false"
       hide_knots="false" /><inkscape:path-effect
       effect="fillet_chamfer"
       id="path-effect67-9"
       is_visible="true"
       lpeversion="1"
       nodesatellites_param="F,0,0,1,0,0,0,1 @ F,0,0,1,0,0.37553673,0,1 @ F,0,1,1,0,1.9245457,0,1 @ F,0,0,1,0,1.9245457,0,1 @ F,0,0,1,0,0.37553673,0,1 @ F,0,0,1,0,0,0,1"
       radius="0"
       unit="px"
       method="auto"
       mode="F"
       chamfer_steps="1"
       flexible="false"
       use_knot_distance="true"
       apply_no_radius="true"
       apply_with_radius="true"
       only_selected="false"
       hide_knots="false" /><inkscape:path-effect
       effect="fillet_chamfer"
       id="path-effect67-9-4"
       is_visible="true"
       lpeversion="1"
       nodesatellites_param="F,0,0,1,0,0,0,1 @ F,0,0,1,0,0.37553673,0,1 @ F,0,1,1,0,1.9245457,0,1 @ F,0,0,1,0,1.9245457,0,1 @ F,0,0,1,0,0.37553673,0,1 @ F,0,0,1,0,0,0,1"
       radius="0"
       unit="px"
       method="auto"
       mode="F"
       chamfer_steps="1"
       flexible="false"
       use_knot_distance="true"
       apply_no_radius="true"
       apply_with_radius="true"
       only_selected="false"
       hide_knots="false" /><inkscape:path-effect
       effect="fillet_chamfer"
       id="path-effect67-9-9"
       is_visible="true"
       lpeversion="1"
       nodesatellites_param="F,0,0,1,0,0,0,1 @ F,0,0,1,0,0.37553673,0,1 @ F,0,1,1,0,1.9245457,0,1 @ F,0,0,1,0,1.9245457,0,1 @ F,0,0,1,0,0.37553673,0,1 @ F,0,0,1,0,0,0,1"
       radius="0"
       unit="px"
       method="auto"
       mode="F"
       chamfer_steps="1"
       flexible="false"
       use_knot_distance="true"
       apply_no_radius="true"
       apply_with_radius="true"
       only_selected="false"
       hide_knots="false" /><inkscape:path-effect
       effect="fillet_chamfer"
       id="path-effect67-9-7"
       is_visible="true"
       lpeversion="1"
       nodesatellites_param="F,0,0,1,0,0,0,1 @ F,0,0,1,0,0.37553673,0,1 @ F,0,1,1,0,1.9245457,0,1 @ F,0,0,1,0,1.9245457,0,1 @ F,0,0,1,0,0.37553673,0,1 @ F,0,0,1,0,0,0,1"
       radius="0"
       unit="px"
       method="auto"
       mode="F"
       chamfer_steps="1"
       flexible="false"
       use_knot_distance="true"
       apply_no_radius="true"
       apply_with_radius="true"
       only_selected="false"
       hide_knots="false" /><inkscape:path-effect
       effect="fillet_chamfer"
       id="path-effect67-9-5"
       is_visible="true"
       lpeversion="1"
       nodesatellites_param="F,0,0,1,0,0,0,1 @ F,0,0,1,0,0.37553673,0,1 @ F,0,1,1,0,1.9245457,0,1 @ F,0,0,1,0,1.9245457,0,1 @ F,0,0,1,0,0.37553673,0,1 @ F,0,0,1,0,0,0,1"
       radius="0"
       unit="px"
       method="auto"
       mode="F"
       chamfer_steps="1"
       flexible="false"
       use_knot_distance="true"
       apply_no_radius="true"
       apply_with_radius="true"
       only_selected="false"
       hide_knots="false" /><inkscape:path-effect
       effect="fillet_chamfer"
       id="path-effect67-9-2"
       is_visible="true"
       lpeversion="1"
       nodesatellites_param="F,0,0,1,0,0,0,1 @ F,0,0,1,0,0.37553673,0,1 @ F,0,1,1,0,1.9245457,0,1 @ F,0,0,1,0,1.9245457,0,1 @ F,0,0,1,0,0.37553673,0,1 @ F,0,0,1,0,0,0,1"
       radius="0"
       unit="px"
       method="auto"
       mode="F"
       chamfer_steps="1"
       flexible="false"
       use_knot_distance="true"
       apply_no_radius="true"
       apply_with_radius="true"
       only_selected="false"
       hide_knots="false" /><inkscape:path-effect
       effect="fillet_chamfer"
       id="path-effect67-9-79"
       is_visible="true"
       lpeversion="1"
       nodesatellites_param="F,0,0,1,0,0,0,1 @ F,0,0,1,0,0.37553673,0,1 @ F,0,1,1,0,1.9245457,0,1 @ F,0,0,1,0,1.9245457,0,1 @ F,0,0,1,0,0.37553673,0,1 @ F,0,0,1,0,0,0,1"
       radius="0"
       unit="px"
       method="auto"
       mode="F"
       chamfer_steps="1"
       flexible="false"
       use_knot_distance="true"
       apply_no_radius="true"
       apply_with_radius="true"
       only_selected="false"
       hide_knots="false" /><inkscape:path-effect
       effect="fillet_chamfer"
       id="path-effect67-9-3"
       is_visible="true"
       lpeversion="1"
       nodesatellites_param="F,0,0,1,0,0,0,1 @ F,0,0,1,0,0.37553673,0,1 @ F,0,1,1,0,1.9245457,0,1 @ F,0,0,1,0,1.9245457,0,1 @ F,0,0,1,0,0.37553673,0,1 @ F,0,0,1,0,0,0,1"
       radius="0"
       unit="px"
       method="auto"
       mode="F"
       chamfer_steps="1"
       flexible="false"
       use_knot_distance="true"
       apply_no_radius="true"
       apply_with_radius="true"
       only_selected="false"
       hide_knots="false" /><inkscape:path-effect
       effect="fillet_chamfer"
       id="path-effect67-9-38"
       is_visible="true"
       lpeversion="1"
       nodesatellites_param="F,0,0,1,0,0,0,1 @ F,0,0,1,0,0.37553673,0,1 @ F,0,1,1,0,1.9245457,0,1 @ F,0,0,1,0,1.9245457,0,1 @ F,0,0,1,0,0.37553673,0,1 @ F,0,0,1,0,0,0,1"
       radius="0"
       unit="px"
       method="auto"
       mode="F"
       chamfer_steps="1"
       flexible="false"
       use_knot_distance="true"
       apply_no_radius="true"
       apply_with_radius="true"
       only_selected="false"
       hide_knots="false" /><inkscape:path-effect
       effect="fillet_chamfer"
       id="path-effect67-9-8"
       is_visible="true"
       lpeversion="1"
       nodesatellites_param="F,0,0,1,0,0,0,1 @ F,0,0,1,0,0.37553673,0,1 @ F,0,1,1,0,1.9245457,0,1 @ F,0,0,1,0,1.9245457,0,1 @ F,0,0,1,0,0.37553673,0,1 @ F,0,0,1,0,0,0,1"
       radius="0"
       unit="px"
       method="auto"
       mode="F"
       chamfer_steps="1"
       flexible="false"
       use_knot_distance="true"
       apply_no_radius="true"
       apply_with_radius="true"
       only_selected="false"
       hide_knots="false" /><inkscape:path-effect
       effect="fillet_chamfer"
       id="path-effect65-74"
       is_visible="true"
       lpeversion="1"
       nodesatellites_param="F,0,1,1,0,1.940239,0,1 @ F,0,1,1,0,1.940239,0,1 @ F,0,0,1,0,1.940239,0,1 @ F,0,1,1,0,1.940239,0,1"
       radius="0"
       unit="px"
       method="auto"
       mode="F"
       chamfer_steps="1"
       flexible="false"
       use_knot_distance="true"
       apply_no_radius="true"
       apply_with_radius="true"
       only_selected="false"
       hide_knots="false" /><inkscape:path-effect
       effect="fillet_chamfer"
       id="path-effect65-74-3"
       is_visible="true"
       lpeversion="1"
       nodesatellites_param="F,0,1,1,0,1.940239,0,1 @ F,0,1,1,0,1.940239,0,1 @ F,0,0,1,0,1.940239,0,1 @ F,0,1,1,0,1.940239,0,1"
       radius="0"
       unit="px"
       method="auto"
       mode="F"
       chamfer_steps="1"
       flexible="false"
       use_knot_distance="true"
       apply_no_radius="true"
       apply_with_radius="true"
       only_selected="false"
       hide_knots="false" /><inkscape:path-effect
       effect="fillet_chamfer"
       id="path-effect65-2"
       is_visible="true"
       lpeversion="1"
       nodesatellites_param="F,0,1,1,0,1.940239,0,1 @ F,0,1,1,0,1.940239,0,1 @ F,0,0,1,0,1.940239,0,1 @ F,0,1,1,0,1.940239,0,1"
       radius="0"
       unit="px"
       method="auto"
       mode="F"
       chamfer_steps="1"
       flexible="false"
       use_knot_distance="true"
       apply_no_radius="true"
       apply_with_radius="true"
       only_selected="false"
       hide_knots="false" /><inkscape:path-effect
       effect="fillet_chamfer"
       id="path-effect65-74-5"
       is_visible="true"
       lpeversion="1"
       nodesatellites_param="F,0,1,1,0,1.940239,0,1 @ F,0,1,1,0,1.940239,0,1 @ F,0,0,1,0,1.940239,0,1 @ F,0,1,1,0,1.940239,0,1"
       radius="0"
       unit="px"
       method="auto"
       mode="F"
       chamfer_steps="1"
       flexible="false"
       use_knot_distance="true"
       apply_no_radius="true"
       apply_with_radius="true"
       only_selected="false"
       hide_knots="false" /><inkscape:path-effect
       effect="fillet_chamfer"
       id="path-effect65-9"
       is_visible="true"
       lpeversion="1"
       nodesatellites_param="F,0,1,1,0,1.940239,0,1 @ F,0,1,1,0,1.940239,0,1 @ F,0,0,1,0,1.940239,0,1 @ F,0,1,1,0,1.940239,0,1"
       radius="0"
       unit="px"
       method="auto"
       mode="F"
       chamfer_steps="1"
       flexible="false"
       use_knot_distance="true"
       apply_no_radius="true"
       apply_with_radius="true"
       only_selected="false"
       hide_knots="false" /></defs><g
     inkscape:groupmode="layer"
     id="layer6"
     inkscape:label="BG"
     transform="translate(75.630692,32.122208)"
     sodipodi:insensitive="true"
     style="display:inline"><rect
       style="fill:#021e35;fill-opacity:1;stroke-width:0.288961"
       id="rect75"
       width="300"
       height="300"
       x="-75.630692"
       y="-32.122208" /></g><g
     inkscape:groupmode="layer"
     id="layer2"
     inkscape:label="N"
     style="display:inline"
     transform="matrix(1.0286198,0,0,1.0286198,74.893433,30.457762)"
     sodipodi:insensitive="true"><path
       id="path104"
       style="display:inline;fill:#fefeff;stroke-width:0.264583"
       d="m 120.59194,55.524033 c -0.16991,0.01502 -0.33237,0.07781 -0.46922,0.181362 L 94.724584,74.913124 c -0.923796,0.698562 -1.468364,1.800553 -1.468474,2.971614 v 36.009032 c 1.78e-4,0.72636 -0.84043,1.11494 -1.378045,0.63702 L 73.016982,97.769683 v -5.02e-4 C 57.280048,83.786849 41.543756,69.803771 25.807255,55.820944 25.269616,55.343178 24.429159,55.731693 24.42921,56.457969 v 50.119551 c -1.3e-5,1.17127 0.544092,2.27364 1.46747,2.97312 l 15.040436,11.39361 c 0.731425,0.55409 0.731173,1.66882 -5.03e-4,2.22256 L 25.89668,134.54887 c -0.923561,0.69894 -1.4679,1.80103 -1.467973,2.97212 v 39.45137 c -1.47e-4,0.76938 0.861641,1.21015 1.468475,0.75107 L 51.295313,158.5157 c 0.923796,-0.69856 1.468363,-1.80055 1.468475,-2.97161 v -36.00903 c -1.86e-4,-0.72636 0.840427,-1.11495 1.378045,-0.63703 l 18.861082,16.76111 v 5.1e-4 c 15.736939,13.98232 31.473225,27.9654 47.209725,41.94823 0.53764,0.47777 1.3781,0.0893 1.37805,-0.63702 v -50.11955 c 1e-5,-1.17127 -0.54409,-2.27364 -1.46747,-2.97312 l -15.04044,-11.39362 c -0.73142,-0.55409 -0.73117,-1.66881 5e-4,-2.22255 l 15.03994,-11.382063 c 0.92356,-0.698936 1.4679,-1.801027 1.46797,-2.972117 V 56.456462 c 1.2e-4,-0.548809 -0.46186,-0.9799 -0.99925,-0.932429 z"
       sodipodi:nodetypes="scccccccccccccccccccccccccccccsccs"
       inkscape:label="Big N" /></g><g
     inkscape:groupmode="layer"
     id="layer4"
     inkscape:label="Lightning"
     transform="translate(75.630692,32.122208)"
     style="display:inline"><path
       style="display:inline;fill:#fefeff;fill-opacity:1;stroke-width:0.264583"
       d="m 40.369383,111.27234 -40.46505704,21.69608 a 1.1277873,1.1277873 69.361634 0 0 0.78810736,2.09247 L 31.981548,127.79238 a 0.52441955,0.52441955 38.307689 0 1 0.643075,0.50801 l 0.03593,6.7121 a 0.99534573,0.99534573 31.093158 0 0 1.455039,0.8775 l 21.474516,-11.18226 a 1.3161728,1.3161728 73.70038 0 0 -0.724707,-2.47836 l -9.901391,0.88232 a 2.3356441,2.3356441 40.448142 0 1 -2.537232,-2.16303 l -0.623067,-8.88469 a 0.97567766,0.97567766 28.894865 0 0 -1.434326,-0.79163 z"
       id="path17"
       sodipodi:nodetypes="ccccccc"
       inkscape:path-effect="#path-effect18"
       inkscape:original-d="m 41.698229,110.55986 -49.2825459,26.42373 40.2054259,-9.33978 0.04817,8.99931 28.812568,-15.00335 -18.888566,1.68318 z"
       inkscape:label="Left Ligthning"
       transform="translate(-30.47486,-4.3515774)" /><path
       style="display:inline;fill:#fefeff;fill-opacity:1;stroke-width:0.264583"
       d="m 104.35965,60.248581 -15.52797,0.07892 A 1.8325788,1.8325788 57.795943 0 1 87.173619,57.694957 L 109.1802,12.340096 a 1.3658742,1.3658742 14.85297 0 1 2.5917,0.687319 l -2.03531,30.459252 a 2.1079156,2.1079156 46.891406 0 0 2.1047,2.248454 l 14.41551,-0.01008 a 1.8368814,1.8368814 57.986759 0 1 1.65207,2.642508 l -20.60951,42.230389 a 1.3801857,1.3801857 14.870768 0 1 -2.61763,-0.695066 l 1.78632,-27.415479 a 2.1021616,2.1021616 46.718387 0 0 -2.1084,-2.238815 z"
       id="path16"
       sodipodi:nodetypes="ccccccc"
       inkscape:path-effect="#path-effect17"
       inkscape:original-d="m 106.61467,60.23712 -20.72564,0.105334 26.35005,-54.3066017 -2.65284,39.7008447 19.61325,-0.01371 -24.97336,51.172214 z"
       transform="rotate(180,89.36448,120.79292)"
       inkscape:label="Lower Ligthning" /><path
       style="display:inline;fill:#fefeff;fill-opacity:1;stroke-width:0.264583"
       d="m 40.369383,111.27234 -40.46505704,21.69608 a 1.1277873,1.1277873 69.361634 0 0 0.78810736,2.09247 L 31.981548,127.79238 a 0.52441955,0.52441955 38.307689 0 1 0.643075,0.50801 l 0.03593,6.7121 a 0.99534573,0.99534573 31.093158 0 0 1.455039,0.8775 l 21.474516,-11.18226 a 1.3161728,1.3161728 73.70038 0 0 -0.724707,-2.47836 l -9.901391,0.88232 a 2.3356441,2.3356441 40.448142 0 1 -2.537232,-2.16303 l -0.623067,-8.88469 a 0.97567766,0.97567766 28.894865 0 0 -1.434326,-0.79163 z"
       id="path18"
       sodipodi:nodetypes="ccccccc"
       inkscape:path-effect="#path-effect20"
       inkscape:original-d="m 41.698229,110.55986 -49.2825459,26.42373 40.2054259,-9.33978 0.04817,8.99931 28.812568,-15.00335 -18.888566,1.68318 z"
       inkscape:label="Right Ligthning"
       transform="rotate(180,89.617355,120.05358)" /><path
       style="display:inline;fill:#fefeff;fill-opacity:1;stroke-width:0.264583"
       d="m 104.35965,60.248581 -15.52797,0.07892 A 1.8325788,1.8325788 57.795943 0 1 87.173619,57.694957 L 109.1802,12.340096 a 1.3658742,1.3658742 14.85297 0 1 2.5917,0.687319 l -2.03531,30.459252 a 2.1079156,2.1079156 46.891406 0 0 2.1047,2.248454 l 14.41551,-0.01008 a 1.8368814,1.8368814 57.986759 0 1 1.65207,2.642508 l -20.60951,42.230389 a 1.3801857,1.3801857 14.870768 0 1 -2.61763,-0.695066 l 1.78632,-27.415479 a 2.1021616,2.1021616 46.718387 0 0 -2.1084,-2.238815 z"
       id="path14"
       sodipodi:nodetypes="ccccccc"
       inkscape:path-effect="#path-effect14"
       inkscape:original-d="m 106.61467,60.23712 -20.72564,0.105334 26.35005,-54.3066017 -2.65284,39.7008447 19.61325,-0.01371 -24.97336,51.172214 z"
       transform="translate(-29.990341,-4.87079)"
       inkscape:label="Upper Ligthning" /></g><g
     inkscape:groupmode="layer"
     id="layer3"
     inkscape:label="Pads"
     transform="translate(75.630692,32.122208)"
     style="display:inline"><circle
       style="display:inline;fill:#fbda5a;fill-opacity:1;stroke-width:0.264583"
       id="circle39-3"
       cx="-3.7273147"
       cy="45.587284"
       r="3.3331356"
       inkscape:label="Pad 12"
       transform="matrix(-1,0,0,1,5.6356295,-12.5148)" /><circle
       style="display:inline;fill:#fbda5a;fill-opacity:1;stroke-width:0.264583"
       id="circle40-5"
       cx="14.487254"
       cy="71.219833"
       r="3.3331356"
       inkscape:label="Pad 11"
       transform="matrix(-1,0,0,1,5.6356295,-12.5148)" /><circle
       style="display:inline;fill:#fbda5a;fill-opacity:1;stroke-width:0.264583"
       id="circle41-6"
       cx="34.192604"
       cy="103.71803"
       r="3.3331356"
       inkscape:label="Pad 10"
       transform="matrix(-1,0,0,1,5.6356295,-12.5148)" /><circle
       style="display:inline;fill:#fbda5a;fill-opacity:1;stroke-width:0.264583"
       id="circle41-6-3"
       cx="34.192604"
       cy="-157.06126"
       r="3.3331356"
       inkscape:label="Pad 9"
       transform="rotate(180,2.8178147,-6.2573998)" /><circle
       style="display:inline;fill:#fbda5a;fill-opacity:1;stroke-width:0.264583"
       id="circle40-5-0"
       cx="14.487261"
       cy="-189.55946"
       r="3.3331356"
       inkscape:label="Pad 8"
       transform="rotate(180,2.8178147,-6.2573998)" /><circle
       style="display:inline;fill:#fbda5a;fill-opacity:1;stroke-width:0.264583"
       id="circle39-3-9"
       cx="-3.7273083"
       cy="-215.192"
       r="3.3331356"
       inkscape:label="Pad 7"
       transform="rotate(180,2.8178147,-6.2573998)" /><circle
       style="display:inline;fill:#fbda5a;fill-opacity:1;stroke-width:0.264583"
       id="circle39-9"
       cx="133.76128"
       cy="-215.18611"
       r="3.3331356"
       inkscape:label="Pad 6"
       transform="matrix(1,0,0,-1,5.6356295,-12.5148)" /><circle
       style="display:inline;fill:#fbda5a;fill-opacity:1;stroke-width:0.264583"
       id="circle40-4"
       cx="151.97585"
       cy="-189.55357"
       r="3.3331356"
       inkscape:label="Pad 5"
       transform="matrix(1,0,0,-1,5.6356295,-12.5148)" /><circle
       style="display:inline;fill:#fbda5a;fill-opacity:1;stroke-width:0.264583"
       id="circle41-5"
       cx="171.68121"
       cy="-157.05537"
       r="3.3331356"
       inkscape:label="Pad 4"
       transform="matrix(1,0,0,-1,5.6356295,-12.5148)" /><circle
       style="fill:#fbda5a;fill-opacity:1;stroke-width:0.264583"
       id="circle41"
       cx="177.31683"
       cy="91.209129"
       r="3.3331356"
       inkscape:label="Pad 3" /><circle
       style="fill:#fbda5a;fill-opacity:1;stroke-width:0.264583"
       id="circle40"
       cx="157.61148"
       cy="58.710926"
       r="3.3331356"
       inkscape:label="Pad 2" /><circle
       style="fill:#fbda5a;fill-opacity:1;stroke-width:0.264583"
       id="circle39"
       cx="139.39691"
       cy="33.078377"
       r="3.3331356"
       inkscape:label="Pad 1" /></g><g
     inkscape:groupmode="layer"
     id="layer5"
     inkscape:label="Circuit"
     transform="translate(81.266321,19.607408)"
     style="display:inline"><path
       id="path75-0"
       style="display:inline;fill:#84d3fd;fill-opacity:1;stroke-width:0.264583"
       inkscape:label="Trace 16"
       d="m 33.728559,38.143808 a 7.7414761,7.7414761 0 0 1 7.74113,7.741647 7.7414761,7.7414761 0 0 1 -5.76347,7.471895 v 4.810559 c 4e-5,0.240837 0.0936,0.472248 0.26096,0.645439 l 1.45419,1.504817 c 0.73879,0.764547 0.7182,1.983166 -0.046,2.722315 l -0.077,0.07441 c -0.76389,0.739017 -1.98223,0.718891 -2.72129,-0.04496 l -2.56574,-2.652551 c -0.16743,-0.173145 -0.261,-0.404585 -0.26096,-0.645438 v -6.403744 a 7.7414761,7.7414761 0 0 1 -5.76348,-7.482747 7.7414761,7.7414761 0 0 1 7.74165,-7.741647 z m -0.14469,4.110344 a 3.6556973,3.6556973 0 0 0 -3.6556,3.655591 3.6556973,3.6556973 0 0 0 3.6556,3.65559 3.6556973,3.6556973 0 0 0 3.65611,-3.65559 3.6556973,3.6556973 0 0 0 -3.65611,-3.655591 z" /><path
       id="path74-0"
       style="display:inline;fill:#84d3fd;fill-opacity:1;stroke-width:0.264583"
       inkscape:label="Trace 15"
       d="m 3.5490297,57.279032 a 7.7414761,7.7414761 0 0 1 7.7411303,7.741646 7.7414761,7.7414761 0 0 1 -5.8110203,7.482747 v 0.865064 c -1e-5,0.24085 0.0936,0.47228 0.26097,0.64544 l 8.2310203,8.51162 c 0.73899,0.76419 0.71865,1.98274 -0.0455,2.7218 l -0.078,0.0749 c -0.76384,0.73913 -1.98227,0.719 -2.72128,-0.045 l -9.3420603,-9.65884 c -0.16742,-0.17315 -0.26099,-0.40459 -0.26097,-0.64544 v -2.482536 a 7.7414761,7.7414761 0 0 1 -5.7159303,-7.469828 7.7414761,7.7414761 0 0 1 7.7416503,-7.741646 z m -0.1447,4.110343 a 3.6556973,3.6556973 0 0 0 -3.65559006,3.655591 3.6556973,3.6556973 0 0 0 3.65559006,3.655591 3.6556973,3.6556973 0 0 0 3.65611,-3.655591 3.6556973,3.6556973 0 0 0 -3.65611,-3.655591 z" /><path
       style="display:inline;fill:#84d3fd;fill-opacity:1;stroke-width:0.264583"
       d="M 180.46259,71.621295 162.38723,85.323 a 1.9076569,1.9076569 97.35156 0 0 -0.34812,2.698217 l 0.0472,0.06009 a 1.9733775,1.9733775 7.3515589 0 0 2.7443,0.354063 l 18.07536,-13.701706 a 1.9076567,1.9076567 97.351554 0 0 0.34812,-2.698217 l -0.0472,-0.06009 a 1.9733779,1.9733779 7.3515553 0 0 -2.7443,-0.354063 z"
       id="path61-2"
       inkscape:path-effect="#path-effect65-74"
       inkscape:original-d="m 182.0088,70.449218 -21.16778,16.045859 2.44336,3.112374 21.16778,-16.04586 z"
       transform="matrix(-0.9876669,-0.15656975,-0.15656975,0.9876669,186.68551,37.986658)"
       inkscape:label="Trace 14" /><path
       id="path59-1-1-0"
       style="display:inline;fill:#84d3fd;fill-opacity:1;stroke-width:0.264583"
       inkscape:label="Trace 13"
       d="m -11.664511,95.954699 a 7.7414761,7.7414761 0 0 1 7.4719004,5.763481 h 5.8709503 a 0.92842102,0.92842102 0 0 1 0.64544,0.26097 l 9.6588503,9.34258 a 1.9243553,1.9243553 0 0 1 0.0455,2.72076 l -0.0755,0.078 a 1.9249572,1.9249572 0 0 1 -2.7218003,0.0455 l -8.51111006,-8.23051 a 0.92857439,0.92857439 0 0 0 -0.64544,-0.26148 H -4.1926406 a 7.7414761,7.7414761 0 0 1 -7.4719004,5.76399 7.7414761,7.7414761 0 0 1 -7.48275,-5.76399 h -4.8612 a 1.9782137,1.9782137 0 0 1 -1.99988,-1.95595 2.0001195,2.0001195 0 0 1 1.99988,-1.99988 h 4.8612 a 7.7414761,7.7414761 0 0 1 7.48275,-5.763481 z m -0.14469,4.110351 a 3.6556973,3.6556973 0 0 0 -3.65559,3.65559 3.6556973,3.6556973 0 0 0 3.65559,3.65559 3.6556973,3.6556973 0 0 0 3.6561004,-3.65559 3.6556973,3.6556973 0 0 0 -3.6561004,-3.65559 z" /><path
       id="path59-1-1-0-5"
       style="display:inline;fill:#84d3fd;fill-opacity:1;stroke-width:0.264583"
       inkscape:label="Trace 12"
       d="m -11.664515,164.82462 a 7.7414761,7.7414761 0 0 0 7.4718998,-5.76348 h 5.870951 a 0.92842102,0.92842102 0 0 0 0.64544,-0.26097 l 9.6588492,-9.34258 a 1.9243553,1.9243553 0 0 0 0.0455,-2.72076 l -0.0755,-0.078 a 1.9249572,1.9249572 0 0 0 -2.7217995,-0.0455 l -8.51110976,8.23051 a 0.92857439,0.92857439 0 0 1 -0.64544,0.26148 H -4.1926452 a 7.7414761,7.7414761 0 0 0 -7.4718998,-5.76399 7.7414761,7.7414761 0 0 0 -7.482751,5.76399 h -4.8612 a 1.9782137,1.9782137 0 0 0 -1.99988,1.95595 2.0001195,2.0001195 0 0 0 1.99988,1.99988 h 4.8612 a 7.7414761,7.7414761 0 0 0 7.482751,5.76348 z m -0.14469,-4.11035 a 3.6556973,3.6556973 0 0 1 -3.655591,-3.65559 3.6556973,3.6556973 0 0 1 3.655591,-3.65559 3.6556973,3.6556973 0 0 1 3.6560998,3.65559 3.6556973,3.6556973 0 0 1 -3.6560998,3.65559 z" /><path
       style="display:inline;fill:#84d3fd;fill-opacity:1;stroke-width:0.264583"
       d="M 180.46259,71.621295 162.38723,85.323 a 1.9076569,1.9076569 97.35156 0 0 -0.34812,2.698217 l 0.0472,0.06009 a 1.9733775,1.9733775 7.3515589 0 0 2.7443,0.354063 l 18.07536,-13.701706 a 1.9076567,1.9076567 97.351554 0 0 0.34812,-2.698217 l -0.0472,-0.06009 a 1.9733779,1.9733779 7.3515553 0 0 -2.7443,-0.354063 z"
       id="path61-2-7"
       inkscape:path-effect="#path-effect65-74-5"
       inkscape:original-d="m 182.0088,70.449218 -21.16778,16.045859 2.44336,3.112374 21.16778,-16.04586 z"
       transform="rotate(170.99215,84.567994,118.749)"
       inkscape:label="Trace 11" /><path
       id="path74-0-0"
       style="display:inline;fill:#84d3fd;fill-opacity:1;stroke-width:0.264583"
       inkscape:label="Trace 10"
       d="m 3.5490258,203.50029 a 7.7414761,7.7414761 0 0 0 7.7411292,-7.74165 7.7414761,7.7414761 0 0 0 -5.8110192,-7.48275 v -0.86506 c -10e-6,-0.24085 0.0936,-0.47228 0.2609697,-0.64544 l 8.2310195,-8.51162 c 0.73899,-0.76419 0.71865,-1.98274 -0.0455,-2.7218 l -0.078,-0.0749 c -0.76384,-0.73913 -1.98227,-0.719 -2.72128,0.045 l -9.3420592,9.65884 c -0.16742,0.17315 -0.26099,0.40459 -0.26097,0.64544 v 2.48254 a 7.7414761,7.7414761 0 0 0 -5.715931,7.46982 7.7414761,7.7414761 0 0 0 7.741651,7.74165 z m -0.1447,-4.11035 a 3.6556973,3.6556973 0 0 1 -3.65559006,-3.65559 3.6556973,3.6556973 0 0 1 3.65559006,-3.65559 3.6556973,3.6556973 0 0 1 3.6561097,3.65559 3.6556973,3.6556973 0 0 1 -3.6561097,3.65559 z" /><path
       id="path75-0-0"
       style="display:inline;fill:#84d3fd;fill-opacity:1;stroke-width:0.264583"
       inkscape:label="Trace 9"
       d="m 33.728555,222.63551 a 7.7414761,7.7414761 0 0 0 7.74113,-7.74165 7.7414761,7.7414761 0 0 0 -5.76347,-7.47189 v -4.81056 c 4e-5,-0.24084 0.0936,-0.47225 0.26096,-0.64544 l 1.45419,-1.50482 c 0.73879,-0.76454 0.7182,-1.98316 -0.046,-2.72231 l -0.077,-0.0744 c -0.76389,-0.73902 -1.98223,-0.71889 -2.72129,0.045 l -2.56574,2.65255 c -0.16743,0.17315 -0.261,0.40459 -0.26096,0.64544 v 6.40374 a 7.7414761,7.7414761 0 0 0 -5.76348,7.48275 7.7414761,7.7414761 0 0 0 7.74165,7.74165 z m -0.14469,-4.11034 a 3.6556973,3.6556973 0 0 1 -3.6556,-3.65559 3.6556973,3.6556973 0 0 1 3.6556,-3.65559 3.6556973,3.6556973 0 0 1 3.65611,3.65559 3.6556973,3.6556973 0 0 1 -3.65611,3.65559 z" /><path
       id="path75-8"
       style="display:inline;fill:#84d3fd;fill-opacity:1;stroke-width:0.264583"
       inkscape:label="Trace 8"
       d="m 103.76002,222.62962 a 7.7414761,7.7414761 0 0 1 -7.741126,-7.74165 7.7414761,7.7414761 0 0 1 5.763466,-7.47189 v -4.81056 c -4e-5,-0.24084 -0.0936,-0.47225 -0.26096,-0.64544 l -1.45419,-1.50482 c -0.738786,-0.76455 -0.718196,-1.98316 0.046,-2.72231 l 0.077,-0.0744 c 0.76389,-0.73902 1.98223,-0.71889 2.72129,0.045 l 2.56574,2.65255 c 0.16743,0.17314 0.261,0.40458 0.26096,0.64544 v 6.40374 a 7.7414761,7.7414761 0 0 1 5.76348,7.48275 7.7414761,7.7414761 0 0 1 -7.74165,7.74164 z m 0.14469,-4.11035 a 3.6556973,3.6556973 0 0 0 3.6556,-3.65559 3.6556973,3.6556973 0 0 0 -3.6556,-3.65559 3.6556973,3.6556973 0 0 0 -3.65611,3.65559 3.6556973,3.6556973 0 0 0 3.65611,3.65559 z" /><path
       id="path74-3"
       style="display:inline;fill:#84d3fd;fill-opacity:1;stroke-width:0.264583"
       inkscape:label="Trace 7"
       d="m 133.93955,203.49439 a 7.7414761,7.7414761 0 0 1 -7.74113,-7.74164 7.7414761,7.7414761 0 0 1 5.81102,-7.48275 v -0.86506 c 10e-6,-0.24085 -0.0936,-0.47228 -0.26097,-0.64544 l -8.23102,-8.51163 c -0.73899,-0.76418 -0.71865,-1.98273 0.0455,-2.72179 l 0.078,-0.0749 c 0.76384,-0.73913 1.98227,-0.719 2.72128,0.045 l 9.34206,9.65884 c 0.16742,0.17315 0.26099,0.40459 0.26097,0.64544 v 2.48253 a 7.7414761,7.7414761 0 0 1 5.71593,7.46983 7.7414761,7.7414761 0 0 1 -7.74165,7.74165 z m 0.1447,-4.11034 a 3.6556973,3.6556973 0 0 0 3.65559,-3.65559 3.6556973,3.6556973 0 0 0 -3.65559,-3.65559 3.6556973,3.6556973 0 0 0 -3.65611,3.65559 3.6556973,3.6556973 0 0 0 3.65611,3.65559 z" /><path
       style="display:inline;fill:#84d3fd;fill-opacity:1;stroke-width:0.264583"
       d="M 180.46259,71.621295 162.38723,85.323 a 1.9076569,1.9076569 97.35156 0 0 -0.34812,2.698217 l 0.0472,0.06009 a 1.9733775,1.9733775 7.3515589 0 0 2.7443,0.354063 l 18.07536,-13.701706 a 1.9076567,1.9076567 97.351554 0 0 0.34812,-2.698217 l -0.0472,-0.06009 a 1.9733779,1.9733779 7.3515553 0 0 -2.7443,-0.354063 z"
       id="path61-9"
       inkscape:path-effect="#path-effect65-9"
       inkscape:original-d="m 182.0088,70.449218 -21.16778,16.045859 2.44336,3.112374 21.16778,-16.04586 z"
       transform="matrix(0.9876669,0.15656975,0.15656975,-0.9876669,-49.196922,222.78677)"
       inkscape:label="Trace 6" /><path
       id="path59-1-1"
       style="display:inline;fill:#84d3fd;fill-opacity:1;stroke-width:0.264583"
       inkscape:label="Trace 5"
       d="m 149.1531,95.960596 a 7.7414761,7.7414761 0 0 0 -7.4719,5.763464 h -5.87095 a 0.92842102,0.92842102 0 0 0 -0.64544,0.26097 l -9.65885,9.34258 a 1.9243553,1.9243553 0 0 0 -0.0455,2.72076 l 0.0755,0.078 a 1.9249572,1.9249572 0 0 0 2.7218,0.0455 l 8.51111,-8.23051 a 0.92857439,0.92857439 0 0 1 0.64544,-0.26148 h 4.26692 a 7.7414761,7.7414761 0 0 0 7.4719,5.76399 7.7414761,7.7414761 0 0 0 7.48275,-5.76399 h 4.8612 a 1.9782137,1.9782137 0 0 0 1.99988,-1.95595 2.0001195,2.0001195 0 0 0 -1.99988,-1.99988 h -4.8612 a 7.7414761,7.7414761 0 0 0 -7.48275,-5.763464 z m 0.14469,4.110334 a 3.6556973,3.6556973 0 0 1 3.65559,3.65559 3.6556973,3.6556973 0 0 1 -3.65559,3.65559 3.6556973,3.6556973 0 0 1 -3.6561,-3.65559 3.6556973,3.6556973 0 0 1 3.6561,-3.65559 z" /><path
       id="path59-1-1-1"
       style="display:inline;fill:#84d3fd;fill-opacity:1;stroke-width:0.264583"
       inkscape:label="Trace 4"
       d="m 149.15309,164.81872 a 7.7414761,7.7414761 0 0 1 -7.4719,-5.76346 h -5.87095 a 0.92842102,0.92842102 0 0 1 -0.64544,-0.26097 l -9.65885,-9.34258 a 1.9243553,1.9243553 0 0 1 -0.0455,-2.72076 l 0.0755,-0.078 a 1.9249572,1.9249572 0 0 1 2.7218,-0.0455 l 8.51111,8.23051 a 0.92857439,0.92857439 0 0 0 0.64544,0.26148 h 4.26692 a 7.7414761,7.7414761 0 0 1 7.4719,-5.76399 7.7414761,7.7414761 0 0 1 7.48275,5.76399 h 4.8612 a 1.9782137,1.9782137 0 0 1 1.99988,1.95595 2.0001195,2.0001195 0 0 1 -1.99988,1.99988 h -4.8612 a 7.7414761,7.7414761 0 0 1 -7.48275,5.76346 z m 0.14469,-4.11033 a 3.6556973,3.6556973 0 0 0 3.65559,-3.65559 3.6556973,3.6556973 0 0 0 -3.65559,-3.65559 3.6556973,3.6556973 0 0 0 -3.6561,3.65559 3.6556973,3.6556973 0 0 0 3.6561,3.65559 z" /><path
       style="fill:#84d3fd;fill-opacity:1;stroke-width:0.264583"
       d="M 180.46259,71.621295 162.38723,85.323 a 1.9076569,1.9076569 97.35156 0 0 -0.34812,2.698217 l 0.0472,0.06009 a 1.9733775,1.9733775 7.3515589 0 0 2.7443,0.354063 l 18.07536,-13.701706 a 1.9076567,1.9076567 97.351554 0 0 0.34812,-2.698217 l -0.0472,-0.06009 a 1.9733779,1.9733779 7.3515553 0 0 -2.7443,-0.354063 z"
       id="path61"
       inkscape:path-effect="#path-effect65"
       inkscape:original-d="m 182.0088,70.449218 -21.16778,16.045859 2.44336,3.112374 21.16778,-16.04586 z"
       transform="rotate(-9.0078477,216.56095,331.27591)"
       inkscape:label="Trace 3" /><path
       id="path74"
       style="fill:#84d3fd;fill-opacity:1;stroke-width:0.264583"
       inkscape:label="Trace 2"
       d="m 133.93956,57.284925 a 7.7414761,7.7414761 0 0 0 -7.74113,7.741646 7.7414761,7.7414761 0 0 0 5.81102,7.482747 v 0.865064 c 1e-5,0.240849 -0.0936,0.472279 -0.26097,0.645439 l -8.23102,8.511625 c -0.73899,0.764186 -0.71865,1.982738 0.0455,2.721797 l 0.078,0.07493 c 0.76384,0.73913 1.98227,0.719002 2.72128,-0.04496 l 9.34206,-9.658842 c 0.16742,-0.173151 0.26099,-0.404587 0.26097,-0.645439 v -2.482536 a 7.7414761,7.7414761 0 0 0 5.71593,-7.469828 7.7414761,7.7414761 0 0 0 -7.74165,-7.741646 z m 0.1447,4.110343 a 3.6556973,3.6556973 0 0 1 3.65559,3.655591 3.6556973,3.6556973 0 0 1 -3.65559,3.655591 3.6556973,3.6556973 0 0 1 -3.65611,-3.655591 3.6556973,3.6556973 0 0 1 3.65611,-3.655591 z" /><path
       id="path75"
       style="display:inline;fill:#84d3fd;fill-opacity:1;stroke-width:0.264583"
       inkscape:label="Trace 1"
       d="m 103.76003,38.149701 a 7.7414761,7.7414761 0 0 0 -7.74113,7.741647 7.7414761,7.7414761 0 0 0 5.76347,7.471895 v 4.810559 c -4e-5,0.240837 -0.0936,0.472248 -0.26096,0.645439 l -1.45419,1.504817 c -0.738789,0.764547 -0.718199,1.983166 0.046,2.722315 l 0.077,0.07441 c 0.76389,0.739017 1.98223,0.718891 2.72129,-0.04496 l 2.56574,-2.652551 c 0.16743,-0.173145 0.261,-0.404585 0.26096,-0.645438 V 53.37409 a 7.7414761,7.7414761 0 0 0 5.76348,-7.482747 7.7414761,7.7414761 0 0 0 -7.74165,-7.741647 z m 0.14469,4.110344 a 3.6556973,3.6556973 0 0 1 3.6556,3.655591 3.6556973,3.6556973 0 0 1 -3.6556,3.65559 3.6556973,3.6556973 0 0 1 -3.65611,-3.65559 3.6556973,3.6556973 0 0 1 3.65611,-3.655591 z" /></g></svg>
